<?xml version="1.0" standalone="no"?>
<!DOCTYPE svg PUBLIC "-//W3C//DTD SVG 20010904//EN"
 "http://www.w3.org/TR/2001/REC-SVG-20010904/DTD/svg10.dtd">
<svg version="1.0" xmlns="http://www.w3.org/2000/svg"
 width="500.000000pt" height="118.000000pt" viewBox="0 0 500.000000 118.000000"
 preserveAspectRatio="xMidYMid meet">

<g transform="translate(0.000000,118.000000) scale(0.100000,-0.100000)"
fill="#000000" stroke="none">
<path d="M447 1042 c-23 -25 -22 -85 1 -105 10 -10 33 -17 50 -17 61 0 93 66
56 118 -20 28 -83 31 -107 4z"/>
<path d="M3077 1042 c-23 -25 -22 -85 1 -105 25 -23 78 -21 102 3 45 45 11
120 -53 120 -20 0 -41 -8 -50 -18z"/>
<path d="M180 935 l0 -75 -30 0 c-29 0 -30 -1 -30 -50 0 -49 1 -50 29 -50 l29
0 4 -121 c3 -118 4 -121 31 -145 24 -20 39 -24 98 -24 l69 0 0 49 0 50 -37 3
-38 3 -3 93 -3 92 41 0 40 0 0 50 0 50 -40 0 -40 0 0 75 0 75 -60 0 -60 0 0
-75z"/>
<path d="M1770 926 c0 -91 -4 -97 -45 -70 -37 24 -141 16 -183 -15 -77 -54
-102 -191 -52 -279 47 -83 165 -119 242 -74 23 13 32 14 35 5 3 -8 25 -13 59
-13 l54 0 -2 263 -3 262 -52 3 -53 3 0 -85z m-50 -171 c38 -20 56 -72 40 -120
-27 -81 -126 -90 -165 -15 -19 37 -19 63 1 101 24 47 73 60 124 34z"/>
<path d="M712 849 c-60 -30 -95 -85 -100 -159 -10 -137 65 -220 198 -220 76 0
116 16 158 65 18 20 32 38 30 40 -2 2 -27 8 -56 13 -45 8 -59 6 -90 -9 -20
-11 -45 -16 -57 -13 -23 7 -65 43 -65 56 0 4 63 8 140 8 l140 0 0 33 c0 82
-51 166 -117 193 -49 21 -131 17 -181 -7z m151 -97 c36 -31 21 -42 -58 -42
-41 0 -75 2 -75 4 0 19 18 40 44 52 34 14 61 10 89 -14z"/>
<path d="M1201 853 c-26 -13 -36 -14 -39 -5 -2 7 -24 12 -58 12 l-54 0 0 -190
0 -190 60 0 60 0 0 125 c0 122 1 125 25 141 32 21 72 21 93 0 14 -13 18 -42
21 -141 l3 -125 54 0 54 0 0 140 c0 161 -10 198 -62 230 -41 25 -110 26 -157
3z"/>
<path d="M2025 854 c-69 -36 -104 -97 -105 -182 0 -84 38 -155 102 -188 38
-20 138 -18 168 3 17 12 25 13 28 5 2 -7 24 -12 53 -12 l49 0 -2 188 -3 187
-52 3 c-33 2 -53 -1 -53 -8 0 -6 -11 -5 -30 5 -38 19 -117 19 -155 -1z m160
-108 c45 -45 45 -107 0 -152 -35 -35 -88 -33 -127 6 -28 28 -30 36 -25 78 9
84 97 123 152 68z"/>
<path d="M2560 863 c-8 -3 -23 -12 -32 -21 -16 -13 -18 -13 -24 2 -5 12 -19
16 -60 16 l-54 0 0 -190 0 -190 60 0 60 0 0 125 c0 122 1 125 25 141 30 20 69
21 90 4 12 -10 15 -39 15 -141 l0 -129 60 0 60 0 0 125 c0 122 1 125 25 141
30 20 69 21 90 4 12 -10 15 -39 15 -141 l0 -129 60 0 60 0 0 140 c0 100 -4
151 -14 175 -33 78 -147 101 -224 45 -23 -17 -42 -26 -42 -20 0 6 -15 19 -32
30 -32 19 -103 26 -138 13z"/>
<path d="M3341 852 c-59 -30 -94 -83 -99 -152 -2 -33 -1 -75 2 -95 8 -40 55
-99 97 -121 36 -18 122 -18 159 1 18 9 31 11 35 5 3 -6 29 -10 56 -10 l49 0
-2 188 -3 187 -49 3 c-30 2 -52 -1 -56 -9 -6 -9 -14 -8 -31 5 -31 21 -115 21
-158 -2z m149 -97 c57 -29 61 -132 7 -170 -61 -43 -147 7 -147 85 0 33 6 48
29 71 33 33 67 37 111 14z"/>
<path d="M450 671 l0 -191 55 0 55 0 -2 188 -3 187 -52 3 -53 3 0 -190z"/>
<path d="M3080 671 l0 -191 55 0 55 0 -2 188 -3 187 -52 3 -53 3 0 -190z"/>
<path d="M3925 753 c-89 -23 -133 -138 -82 -214 45 -68 143 -90 207 -46 43 29
46 41 16 60 -23 16 -27 15 -55 0 -55 -32 -123 18 -107 80 12 50 95 69 121 27
5 -8 17 -3 36 16 33 32 30 40 -25 65 -40 18 -71 22 -111 12z"/>
<path d="M4195 741 c-55 -25 -79 -63 -79 -128 -1 -92 64 -147 163 -140 49 3
58 8 94 46 38 41 39 44 35 102 -5 66 -29 101 -85 125 -43 19 -80 17 -128 -5z
m110 -76 c31 -30 32 -71 3 -102 -53 -57 -137 6 -107 80 21 49 68 59 104 22z"/>
<path d="M4553 745 c-19 -8 -35 -10 -38 -4 -4 5 -22 9 -41 9 l-34 0 0 -135 0
-135 40 0 40 0 0 83 c0 90 13 117 56 117 36 0 44 -20 44 -112 l0 -88 40 0 40
0 0 90 c0 78 2 91 19 100 30 16 59 12 71 -9 5 -11 10 -56 10 -100 l0 -81 41 0
41 0 -4 110 c-3 104 -4 111 -31 137 -22 23 -36 28 -72 27 -27 -1 -53 -8 -63
-17 -17 -16 -21 -15 -57 3 -46 23 -59 24 -102 5z"/>
<path d="M3707 553 c-11 -11 -8 -58 5 -71 28 -28 78 -7 78 33 0 12 -5 26 -12
33 -13 13 -60 16 -71 5z"/>
<path d="M2390 301 c0 -28 6 -53 13 -60 9 -7 88 -12 218 -13 l204 -3 3 -30 c7
-75 39 -105 97 -91 14 4 63 33 110 66 l84 60 244 0 c135 0 252 3 261 6 12 5
16 20 16 61 l0 54 -284 -3 -283 -3 -61 -47 c-33 -27 -63 -48 -66 -48 -3 0 -6
17 -6 38 0 21 -5 43 -12 50 -9 9 -84 12 -275 12 l-263 0 0 -49z"/>
</g>
</svg>
