
<svg version="1.0" xmlns="http://www.w3.org/2000/svg"
 width="225.000000pt" height="225.000000pt" viewBox="0 0 225.000000 225.000000"
 preserveAspectRatio="xMidYMid meet">

<g transform="translate(0.000000,225.000000) scale(0.100000,-0.100000)"
fill="#EC3543" stroke="none">
<path d="M0 1125 l0 -1125 1125 0 1125 0 0 1125 0 1125 -1125 0 -1125 0 0
-1125z m1331 566 c21 -22 29 -39 29 -66 0 -27 -8 -44 -29 -66 -22 -21 -39 -29
-66 -29 -27 0 -44 8 -66 29 -21 22 -29 39 -29 66 0 27 8 44 29 66 22 21 39 29
66 29 27 0 44 -8 66 -29z m-637 -212 c22 -6 52 -23 67 -38 l27 -27 30 27 c62
55 162 61 233 14 62 -40 69 -68 69 -279 l0 -186 -75 0 -75 0 0 157 c0 132 -3
159 -17 175 -20 23 -75 24 -108 2 -25 -16 -25 -17 -25 -175 l0 -159 -80 0 -80
0 0 159 c0 132 -3 162 -16 175 -22 22 -76 20 -108 -5 l-26 -20 0 -155 0 -154
-75 0 -75 0 0 245 0 245 58 0 c46 0 63 -4 77 -20 16 -17 20 -18 34 -6 38 33
102 43 165 25z m1024 -13 c26 -14 31 -14 36 -1 8 22 104 20 128 -2 16 -15 18
-36 18 -245 l0 -228 -59 0 c-39 0 -65 5 -74 15 -13 12 -19 12 -53 -5 -81 -42
-212 -10 -269 64 -59 77 -72 194 -31 282 27 58 92 118 144 133 47 13 122 7
160 -13z m-386 -3 c16 -15 18 -36 18 -245 l0 -228 -80 0 -80 0 0 238 c0 131 3
242 7 245 14 15 116 7 135 -10z"/>
<path d="M1581 1324 c-53 -45 -51 -152 4 -188 62 -41 157 -2 171 69 20 111
-93 188 -175 119z"/>
</g>
</svg>
